<?xml version="1.0" standalone="no"?>
<!DOCTYPE svg PUBLIC "-//W3C//DTD SVG 20010904//EN"
 "http://www.w3.org/TR/2001/REC-SVG-20010904/DTD/svg10.dtd">
<svg version="1.0" xmlns="http://www.w3.org/2000/svg"
 width="224.000000pt" height="224.000000pt" viewBox="0 0 224.000000 224.000000"
 preserveAspectRatio="xMidYMid meet">
<metadata>
Created by potrace 1.16, written by Peter Selinger 2001-2019
</metadata>
<g transform="translate(0.000000,224.000000) scale(0.100000,-0.100000)"
fill="#000000" stroke="none">
<path d="M875 1754 c-375 -70 -649 -276 -695 -523 -55 -294 142 -575 483 -692
45 -15 116 -35 157 -44 101 -22 393 -31 502 -16 379 55 639 232 718 490 27 87
28 246 1 324 -70 203 -288 365 -596 444 -87 22 -126 26 -295 29 -144 2 -216
-1 -275 -12z m445 -29 c52 -8 129 -24 170 -35 82 -23 260 -105 300 -137 l24
-21 -68 -21 c-143 -44 -243 -37 -395 27 -79 33 -94 36 -186 37 -100 0 -139
-11 -225 -64 -27 -16 -144 -36 -210 -35 -60 0 -235 42 -271 65 -19 11 3 27
106 78 213 105 502 145 755 106z m-28 -204 c29 -10 80 -29 113 -42 51 -20 78
-23 180 -23 105 0 128 3 189 26 68 26 70 26 92 9 64 -51 154 -195 154 -247 0
-18 -11 -24 -72 -39 -40 -9 -122 -35 -183 -57 -60 -22 -117 -42 -126 -45 -12
-3 -72 43 -184 139 -213 183 -235 198 -295 198 -48 0 -91 -22 -174 -88 -21
-18 -53 -36 -71 -41 -35 -9 -82 -4 -91 11 -8 13 80 113 140 158 93 70 208 85
328 41z m-835 -16 c70 -30 228 -67 282 -68 31 0 73 5 94 12 21 7 40 11 43 8 3
-2 -18 -29 -46 -60 -27 -30 -50 -62 -50 -71 0 -33 84 -63 140 -51 16 3 62 31
102 61 40 30 90 59 112 66 34 10 43 9 80 -10 59 -32 399 -327 410 -357 8 -19
5 -29 -9 -45 -34 -37 -67 -26 -152 50 -43 39 -81 70 -85 70 -18 0 -4 -20 62
-85 72 -72 84 -100 54 -129 -37 -37 -60 -32 -134 34 -39 35 -73 60 -77 56 -3
-3 16 -32 44 -63 66 -78 67 -79 43 -103 -32 -32 -58 -24 -118 32 -68 64 -85
48 -21 -18 48 -49 44 -64 -16 -64 -47 0 -60 14 -61 67 -1 39 -7 52 -33 75 -17
15 -40 28 -51 28 -21 0 -24 4 -34 52 -8 34 -47 61 -90 62 -18 1 -45 12 -61 24
-23 18 -40 23 -84 21 -31 -1 -70 4 -87 11 -25 11 -35 11 -60 -2 -27 -13 -33
-12 -99 19 -38 18 -130 49 -202 70 -146 41 -145 41 -117 109 33 79 144 213
177 214 4 0 24 -7 44 -15z m-81 -350 c49 -15 119 -40 157 -57 65 -30 67 -32
67 -68 0 -47 30 -86 72 -94 22 -5 40 -17 53 -39 15 -23 32 -35 63 -42 24 -6
46 -15 50 -21 14 -20 57 -44 80 -44 14 0 40 -13 59 -30 39 -34 94 -40 131 -15
17 13 26 13 43 5 33 -18 106 -16 127 3 10 10 31 17 46 17 37 0 83 25 91 50 4
14 15 20 34 20 33 0 79 33 91 64 5 14 23 27 49 35 51 15 75 48 69 96 -4 34 -3
36 47 54 73 27 170 57 253 80 l72 20 0 -44 c0 -24 -8 -70 -18 -103 -111 -354
-703 -560 -1227 -427 -329 83 -557 285 -573 506 l-5 72 40 -6 c22 -4 80 -18
129 -32z m360 -100 l16 -25 25 20 c14 11 36 20 49 20 28 0 64 -32 64 -57 0
-13 3 -14 12 -5 19 19 73 14 92 -7 12 -13 17 -32 14 -58 l-3 -38 37 3 c73 7
109 -82 52 -127 -15 -12 -33 -21 -40 -21 -28 0 -63 24 -75 51 -13 33 -13 33
-39 19 -28 -15 -70 5 -83 39 -9 26 -13 28 -33 19 -18 -8 -29 -7 -49 6 -27 17
-49 61 -40 76 3 5 -11 6 -30 3 -42 -7 -75 17 -75 53 0 54 76 75 106 29z"/>
</g>
</svg>
